<svg width="93" height="14" viewBox="0 0 93 14" fill="none" xmlns="http://www.w3.org/2000/svg">
<path d="M7.594 6.502C8.47 6.682 9.136 7.036 9.592 7.564C10.048 8.08 10.276 8.758 10.276 9.598C10.276 10.69 9.886 11.53 9.106 12.118C8.338 12.706 7.204 13 5.704 13H0.124V0.399999H5.362C6.706 0.399999 7.756 0.675999 8.512 1.228C9.268 1.78 9.646 2.578 9.646 3.622C9.646 4.33 9.466 4.93 9.106 5.422C8.746 5.902 8.242 6.262 7.594 6.502ZM1.438 6.106H5.29C6.262 6.106 7.006 5.908 7.522 5.512C8.05 5.116 8.314 4.54 8.314 3.784C8.314 3.028 8.05 2.452 7.522 2.056C7.006 1.66 6.262 1.462 5.29 1.462H1.438V6.106ZM5.704 11.938C7.876 11.938 8.962 11.128 8.962 9.508C8.962 7.924 7.876 7.132 5.704 7.132H1.438V11.938H5.704ZM28.5954 3.532V13H27.4254V5.512L23.5914 11.848H23.0154L19.1814 5.494V13H18.0114V3.532H19.3074L23.3214 10.354L27.4074 3.532H28.5954ZM35.4901 3.46C36.7261 3.46 37.6741 3.772 38.3341 4.396C38.9941 5.008 39.3241 5.92 39.3241 7.132V13H38.1001V11.524C37.8121 12.016 37.3861 12.4 36.8221 12.676C36.2701 12.952 35.6101 13.09 34.8421 13.09C33.7861 13.09 32.9461 12.838 32.3221 12.334C31.6981 11.83 31.3861 11.164 31.3861 10.336C31.3861 9.532 31.6741 8.884 32.2501 8.392C32.8381 7.9 33.7681 7.654 35.0401 7.654H38.0461V7.078C38.0461 6.262 37.8181 5.644 37.3621 5.224C36.9061 4.792 36.2401 4.576 35.3641 4.576C34.7641 4.576 34.1881 4.678 33.6361 4.882C33.0841 5.074 32.6101 5.344 32.2141 5.692L31.6381 4.738C32.1181 4.33 32.6941 4.018 33.3661 3.802C34.0381 3.574 34.7461 3.46 35.4901 3.46ZM35.0401 12.082C35.7601 12.082 36.3781 11.92 36.8941 11.596C37.4101 11.26 37.7941 10.78 38.0461 10.156V8.608H35.0761C33.4561 8.608 32.6461 9.172 32.6461 10.3C32.6461 10.852 32.8561 11.29 33.2761 11.614C33.6961 11.926 34.2841 12.082 35.0401 12.082ZM49.4222 4.666H44.0042V13H42.7262V3.532H49.4222V4.666ZM54.5272 3.46C55.7632 3.46 56.7112 3.772 57.3712 4.396C58.0312 5.008 58.3612 5.92 58.3612 7.132V13H57.1372V11.524C56.8492 12.016 56.4232 12.4 55.8592 12.676C55.3072 12.952 54.6472 13.09 53.8792 13.09C52.8232 13.09 51.9832 12.838 51.3592 12.334C50.7352 11.83 50.4232 11.164 50.4232 10.336C50.4232 9.532 50.7112 8.884 51.2872 8.392C51.8752 7.9 52.8052 7.654 54.0772 7.654H57.0832V7.078C57.0832 6.262 56.8552 5.644 56.3992 5.224C55.9432 4.792 55.2772 4.576 54.4012 4.576C53.8012 4.576 53.2252 4.678 52.6732 4.882C52.1212 5.074 51.6472 5.344 51.2512 5.692L50.6752 4.738C51.1552 4.33 51.7312 4.018 52.4032 3.802C53.0752 3.574 53.7832 3.46 54.5272 3.46ZM54.0772 12.082C54.7972 12.082 55.4152 11.92 55.9312 11.596C56.4472 11.26 56.8312 10.78 57.0832 10.156V8.608H54.1132C52.4932 8.608 51.6832 9.172 51.6832 10.3C51.6832 10.852 51.8932 11.29 52.3132 11.614C52.7332 11.926 53.3212 12.082 54.0772 12.082ZM66.178 8.068C66.85 8.224 67.366 8.494 67.726 8.878C68.098 9.262 68.284 9.73 68.284 10.282C68.284 10.834 68.092 11.326 67.708 11.758C67.336 12.19 66.826 12.526 66.178 12.766C65.53 12.994 64.816 13.108 64.036 13.108C63.352 13.108 62.68 13.012 62.02 12.82C61.36 12.616 60.784 12.322 60.292 11.938L60.724 10.984C61.156 11.308 61.66 11.56 62.236 11.74C62.812 11.92 63.394 12.01 63.982 12.01C64.858 12.01 65.572 11.848 66.124 11.524C66.688 11.188 66.97 10.738 66.97 10.174C66.97 9.67 66.742 9.28 66.286 9.004C65.83 8.716 65.206 8.572 64.414 8.572H62.794V7.636H64.342C65.05 7.636 65.62 7.504 66.052 7.24C66.484 6.964 66.7 6.598 66.7 6.142C66.7 5.638 66.454 5.242 65.962 4.954C65.482 4.666 64.852 4.522 64.072 4.522C63.052 4.522 62.044 4.78 61.048 5.296L60.688 4.306C61.816 3.718 62.986 3.424 64.198 3.424C64.918 3.424 65.566 3.532 66.142 3.748C66.73 3.952 67.186 4.246 67.51 4.63C67.846 5.014 68.014 5.458 68.014 5.962C68.014 6.442 67.846 6.868 67.51 7.24C67.186 7.612 66.742 7.888 66.178 8.068ZM71.1852 3.532H72.4632V11.056L78.7812 3.532H79.9152V13H78.6372V5.476L72.3372 13H71.1852V3.532ZM83.5778 3.532H84.8558V7.726H90.8138V3.532H92.0918V13H90.8138V8.824H84.8558V13H83.5778V3.532Z" fill="#232323"/>
</svg>
