<svg width="152" height="18" viewBox="0 0 152 18" fill="none" xmlns="http://www.w3.org/2000/svg">
<path d="M6.65 14.108C5.402 14.108 4.268 13.832 3.248 13.28C2.24 12.716 1.448 11.948 0.872 10.976C0.308 10.004 0.0260001 8.912 0.0260001 7.7C0.0260001 6.488 0.308 5.396 0.872 4.424C1.448 3.452 2.24 2.69 3.248 2.138C4.268 1.574 5.402 1.292 6.65 1.292C7.898 1.292 9.02 1.568 10.016 2.12C11.024 2.672 11.816 3.44 12.392 4.424C12.968 5.396 13.256 6.488 13.256 7.7C13.256 8.912 12.968 10.01 12.392 10.994C11.816 11.966 11.024 12.728 10.016 13.28C9.02 13.832 7.898 14.108 6.65 14.108ZM6.65 12.92C7.646 12.92 8.546 12.698 9.35 12.254C10.154 11.798 10.784 11.174 11.24 10.382C11.696 9.578 11.924 8.684 11.924 7.7C11.924 6.716 11.696 5.828 11.24 5.036C10.784 4.232 10.154 3.608 9.35 3.164C8.546 2.708 7.646 2.48 6.65 2.48C5.654 2.48 4.748 2.708 3.932 3.164C3.128 3.608 2.492 4.232 2.024 5.036C1.568 5.828 1.34 6.716 1.34 7.7C1.34 8.684 1.568 9.578 2.024 10.382C2.492 11.174 3.128 11.798 3.932 12.254C4.748 12.698 5.654 12.92 6.65 12.92ZM27.5585 9.248C27.5585 10.724 27.0725 11.882 26.1005 12.722C25.1285 13.562 23.7545 14.018 21.9785 14.09V17.492H20.7365V14.108C18.9725 14.036 17.6045 13.58 16.6325 12.74C15.6725 11.888 15.1925 10.724 15.1925 9.248C15.1925 7.784 15.6725 6.638 16.6325 5.81C17.6045 4.982 18.9725 4.532 20.7365 4.46V0.643999H21.9785V4.46C23.7545 4.544 25.1285 5 26.1005 5.828C27.0725 6.656 27.5585 7.796 27.5585 9.248ZM16.4525 9.248C16.4525 10.376 16.8125 11.258 17.5325 11.894C18.2645 12.53 19.3325 12.89 20.7365 12.974V5.594C19.3445 5.666 18.2825 6.02 17.5505 6.656C16.8185 7.28 16.4525 8.144 16.4525 9.248ZM21.9785 12.974C23.3825 12.902 24.4505 12.548 25.1825 11.912C25.9265 11.276 26.2985 10.388 26.2985 9.248C26.2985 8.132 25.9265 7.262 25.1825 6.638C24.4505 6.014 23.3825 5.666 21.9785 5.594V12.974ZM34.1674 14.09C33.2554 14.09 32.4334 13.886 31.7014 13.478C30.9694 13.058 30.3934 12.482 29.9734 11.75C29.5534 11.018 29.3434 10.19 29.3434 9.266C29.3434 8.342 29.5534 7.514 29.9734 6.782C30.3934 6.05 30.9694 5.48 31.7014 5.072C32.4334 4.664 33.2554 4.46 34.1674 4.46C35.0794 4.46 35.9014 4.664 36.6334 5.072C37.3654 5.48 37.9354 6.05 38.3434 6.782C38.7634 7.514 38.9734 8.342 38.9734 9.266C38.9734 10.19 38.7634 11.018 38.3434 11.75C37.9354 12.482 37.3654 13.058 36.6334 13.478C35.9014 13.886 35.0794 14.09 34.1674 14.09ZM34.1674 12.956C34.8394 12.956 35.4394 12.806 35.9674 12.506C36.5074 12.194 36.9274 11.756 37.2274 11.192C37.5274 10.628 37.6774 9.986 37.6774 9.266C37.6774 8.546 37.5274 7.904 37.2274 7.34C36.9274 6.776 36.5074 6.344 35.9674 6.044C35.4394 5.732 34.8394 5.576 34.1674 5.576C33.4954 5.576 32.8894 5.732 32.3494 6.044C31.8214 6.344 31.4014 6.776 31.0894 7.34C30.7894 7.904 30.6394 8.546 30.6394 9.266C30.6394 9.986 30.7894 10.628 31.0894 11.192C31.4014 11.756 31.8214 12.194 32.3494 12.506C32.8894 12.806 33.4954 12.956 34.1674 12.956ZM46.5827 4.46C47.4707 4.46 48.2747 4.664 48.9947 5.072C49.7147 5.468 50.2787 6.032 50.6867 6.764C51.0947 7.496 51.2987 8.33 51.2987 9.266C51.2987 10.214 51.0947 11.054 50.6867 11.786C50.2787 12.518 49.7147 13.088 48.9947 13.496C48.2867 13.892 47.4827 14.09 46.5827 14.09C45.8147 14.09 45.1187 13.934 44.4947 13.622C43.8827 13.298 43.3787 12.83 42.9827 12.218V17.492H41.7047V4.532H42.9287V6.404C43.3127 5.78 43.8167 5.3 44.4407 4.964C45.0767 4.628 45.7907 4.46 46.5827 4.46ZM46.4927 12.956C47.1527 12.956 47.7527 12.806 48.2927 12.506C48.8327 12.194 49.2527 11.756 49.5527 11.192C49.8647 10.628 50.0207 9.986 50.0207 9.266C50.0207 8.546 49.8647 7.91 49.5527 7.358C49.2527 6.794 48.8327 6.356 48.2927 6.044C47.7527 5.732 47.1527 5.576 46.4927 5.576C45.8207 5.576 45.2147 5.732 44.6747 6.044C44.1467 6.356 43.7267 6.794 43.4147 7.358C43.1147 7.91 42.9647 8.546 42.9647 9.266C42.9647 9.986 43.1147 10.628 43.4147 11.192C43.7267 11.756 44.1467 12.194 44.6747 12.506C45.2147 12.806 45.8207 12.956 46.4927 12.956ZM64.6286 4.532V14H63.4586V6.512L59.6246 12.848H59.0486L55.2146 6.494V14H54.0446V4.532H55.3406L59.3546 11.354L63.4406 4.532H64.6286ZM68.2653 4.532H69.5433V12.056L75.8613 4.532H76.9953V14H75.7173V6.476L69.4173 14H68.2653V4.532ZM87.3178 5.666H83.7358V14H82.4578V5.666H78.8758V4.532H87.3178V5.666ZM93.2337 7.88C94.4217 7.892 95.3217 8.156 95.9337 8.672C96.5577 9.188 96.8697 9.932 96.8697 10.904C96.8697 11.912 96.5337 12.686 95.8617 13.226C95.2017 13.766 94.2417 14.03 92.9817 14.018L89.1657 14V4.532H90.4437V7.844L93.2337 7.88ZM92.9097 13.046C93.7857 13.058 94.4457 12.884 94.8897 12.524C95.3457 12.152 95.5737 11.612 95.5737 10.904C95.5737 10.208 95.3517 9.692 94.9077 9.356C94.4637 9.02 93.7977 8.846 92.9097 8.834L90.4437 8.798V13.01L92.9097 13.046ZM108.627 9.068C109.299 9.224 109.815 9.494 110.175 9.878C110.547 10.262 110.733 10.73 110.733 11.282C110.733 11.834 110.541 12.326 110.157 12.758C109.785 13.19 109.275 13.526 108.627 13.766C107.979 13.994 107.265 14.108 106.485 14.108C105.801 14.108 105.129 14.012 104.469 13.82C103.809 13.616 103.233 13.322 102.741 12.938L103.173 11.984C103.605 12.308 104.109 12.56 104.685 12.74C105.261 12.92 105.843 13.01 106.431 13.01C107.307 13.01 108.021 12.848 108.573 12.524C109.137 12.188 109.419 11.738 109.419 11.174C109.419 10.67 109.191 10.28 108.735 10.004C108.279 9.716 107.655 9.572 106.863 9.572H105.243V8.636H106.791C107.499 8.636 108.069 8.504 108.501 8.24C108.933 7.964 109.149 7.598 109.149 7.142C109.149 6.638 108.903 6.242 108.411 5.954C107.931 5.666 107.301 5.522 106.521 5.522C105.501 5.522 104.493 5.78 103.497 6.296L103.137 5.306C104.265 4.718 105.435 4.424 106.647 4.424C107.367 4.424 108.015 4.532 108.591 4.748C109.179 4.952 109.635 5.246 109.959 5.63C110.295 6.014 110.463 6.458 110.463 6.962C110.463 7.442 110.295 7.868 109.959 8.24C109.635 8.612 109.191 8.888 108.627 9.068ZM116.892 4.46C118.128 4.46 119.076 4.772 119.736 5.396C120.396 6.008 120.726 6.92 120.726 8.132V14H119.502V12.524C119.214 13.016 118.788 13.4 118.224 13.676C117.672 13.952 117.012 14.09 116.244 14.09C115.188 14.09 114.348 13.838 113.724 13.334C113.1 12.83 112.788 12.164 112.788 11.336C112.788 10.532 113.076 9.884 113.652 9.392C114.24 8.9 115.17 8.654 116.442 8.654H119.448V8.078C119.448 7.262 119.22 6.644 118.764 6.224C118.308 5.792 117.642 5.576 116.766 5.576C116.166 5.576 115.59 5.678 115.038 5.882C114.486 6.074 114.012 6.344 113.616 6.692L113.04 5.738C113.52 5.33 114.096 5.018 114.768 4.802C115.44 4.574 116.148 4.46 116.892 4.46ZM116.442 13.082C117.162 13.082 117.78 12.92 118.296 12.596C118.812 12.26 119.196 11.78 119.448 11.156V9.608H116.478C114.858 9.608 114.048 10.172 114.048 11.3C114.048 11.852 114.258 12.29 114.678 12.614C115.098 12.926 115.686 13.082 116.442 13.082ZM127.567 9.788H125.407V14H124.129V4.532H125.407V8.69H127.585L130.915 4.532H132.301L128.575 9.122L132.571 14H131.059L127.567 9.788ZM137.67 4.46C138.906 4.46 139.854 4.772 140.514 5.396C141.174 6.008 141.504 6.92 141.504 8.132V14H140.28V12.524C139.992 13.016 139.566 13.4 139.002 13.676C138.45 13.952 137.79 14.09 137.022 14.09C135.966 14.09 135.126 13.838 134.502 13.334C133.878 12.83 133.566 12.164 133.566 11.336C133.566 10.532 133.854 9.884 134.43 9.392C135.018 8.9 135.948 8.654 137.22 8.654H140.226V8.078C140.226 7.262 139.998 6.644 139.542 6.224C139.086 5.792 138.42 5.576 137.544 5.576C136.944 5.576 136.368 5.678 135.816 5.882C135.264 6.074 134.79 6.344 134.394 6.692L133.818 5.738C134.298 5.33 134.874 5.018 135.546 4.802C136.218 4.574 136.926 4.46 137.67 4.46ZM137.22 13.082C137.94 13.082 138.558 12.92 139.074 12.596C139.59 12.26 139.974 11.78 140.226 11.156V9.608H137.256C135.636 9.608 134.826 10.172 134.826 11.3C134.826 11.852 135.036 12.29 135.456 12.614C135.876 12.926 136.464 13.082 137.22 13.082ZM149.321 9.068C149.993 9.224 150.509 9.494 150.869 9.878C151.241 10.262 151.427 10.73 151.427 11.282C151.427 11.834 151.235 12.326 150.851 12.758C150.479 13.19 149.969 13.526 149.321 13.766C148.673 13.994 147.959 14.108 147.179 14.108C146.495 14.108 145.823 14.012 145.163 13.82C144.503 13.616 143.927 13.322 143.435 12.938L143.867 11.984C144.299 12.308 144.803 12.56 145.379 12.74C145.955 12.92 146.537 13.01 147.125 13.01C148.001 13.01 148.715 12.848 149.267 12.524C149.831 12.188 150.113 11.738 150.113 11.174C150.113 10.67 149.885 10.28 149.429 10.004C148.973 9.716 148.349 9.572 147.557 9.572H145.937V8.636H147.485C148.193 8.636 148.763 8.504 149.195 8.24C149.627 7.964 149.843 7.598 149.843 7.142C149.843 6.638 149.597 6.242 149.105 5.954C148.625 5.666 147.995 5.522 147.215 5.522C146.195 5.522 145.187 5.78 144.191 6.296L143.831 5.306C144.959 4.718 146.129 4.424 147.341 4.424C148.061 4.424 148.709 4.532 149.285 4.748C149.873 4.952 150.329 5.246 150.653 5.63C150.989 6.014 151.157 6.458 151.157 6.962C151.157 7.442 150.989 7.868 150.653 8.24C150.329 8.612 149.885 8.888 149.321 9.068Z" fill="#232323"/>
</svg>
