<svg width="39" height="39" viewBox="0 0 39 39" fill="none" xmlns="http://www.w3.org/2000/svg">
<g clip-path="url(#clip0_112_0)">
<path d="M19.5001 0C19.1411 0 18.8501 0.291037 18.8501 0.65V4.55C18.8501 4.90896 19.1411 5.2 19.5001 5.2C19.8591 5.2 20.1501 4.90896 20.1501 4.55V0.65C20.1501 0.291037 19.8591 0 19.5001 0Z" fill="black"/>
<path d="M16.9798 1.46383L16.8667 0.823582C16.8043 0.469982 16.4672 0.233788 16.1136 0.296107C15.76 0.358425 15.5238 0.695532 15.5861 1.04913L15.6992 1.68938C15.7541 1.99976 16.0237 2.22604 16.3388 2.22628C16.3768 2.2262 16.4146 2.22295 16.452 2.21653H16.452C16.8056 2.15438 17.0419 1.81743 16.9798 1.46383Z" fill="black"/>
<path d="M13.8859 2.17558L13.6636 1.56458C13.6609 1.55662 13.658 1.54874 13.655 1.54085C13.5257 1.20594 13.1494 1.0393 12.8145 1.16865C12.4796 1.298 12.3129 1.67427 12.4423 2.00918L12.6639 2.61953C12.7572 2.8766 13.0014 3.04788 13.2749 3.04788C13.3508 3.04788 13.4261 3.03463 13.4974 3.00872C13.8347 2.88595 14.0087 2.51293 13.8859 2.17558Z" fill="black"/>
<path d="M8.29786 5.14022L7.87991 4.64232C7.65046 4.38013 7.25509 4.34544 6.98356 4.56375C6.70373 4.78866 6.65921 5.19775 6.88411 5.47757L7.30206 5.97548C7.42548 6.12286 7.60772 6.20801 7.79996 6.20818C7.95287 6.20818 8.10091 6.15431 8.21799 6.05599C8.49294 5.82516 8.52869 5.41517 8.29786 5.14022Z" fill="black"/>
<path d="M5.97553 7.30211L5.47763 6.88416C5.20609 6.66592 4.81073 6.70053 4.58128 6.96272C4.34484 7.23288 4.37222 7.64352 4.64238 7.87996L5.14028 8.29791C5.2572 8.39606 5.40491 8.44985 5.55758 8.45001C5.74974 8.45001 5.93206 8.36502 6.05556 8.21788C6.28639 7.94285 6.25048 7.53286 5.97553 7.30211Z" fill="black"/>
<path d="M2.6197 12.664L2.00935 12.4423C2.00155 12.4393 1.99358 12.4364 1.98562 12.4337C1.646 12.3174 1.27639 12.4986 1.1602 12.8382C1.04393 13.1779 1.22512 13.5475 1.56475 13.6637L2.17575 13.886C2.24676 13.912 2.32175 13.9255 2.3974 13.9256C2.67243 13.9266 2.91829 13.7544 3.0114 13.4956C3.13287 13.1578 2.95753 12.7854 2.6197 12.664Z" fill="black"/>
<path d="M1.68938 15.6995L1.04913 15.5864C0.695532 15.5241 0.358425 15.7603 0.296107 16.1139C0.233788 16.4675 0.469982 16.8046 0.823582 16.8669L1.46383 16.98C1.50121 16.9864 1.53899 16.9897 1.57693 16.9897C1.89275 16.9899 2.16299 16.763 2.21751 16.4519C2.27942 16.0983 2.04298 15.7614 1.68938 15.6995Z" fill="black"/>
<path d="M2.21679 22.5475C2.15448 22.1939 1.81737 21.9577 1.46377 22.02L0.82352 22.1331C0.512657 22.1875 0.285888 22.4574 0.285645 22.773C0.285482 23.132 0.576276 23.4232 0.93532 23.4233C0.973426 23.4233 1.01153 23.42 1.04907 23.4136L1.68932 23.3005C2.04292 23.2382 2.27911 22.9011 2.21679 22.5475Z" fill="black"/>
<path d="M3.00847 25.503C2.88587 25.1656 2.51293 24.9914 2.1755 25.114L1.5645 25.3363C1.30726 25.4297 1.13607 25.6742 1.13623 25.9479C1.13656 26.3068 1.42776 26.5976 1.7868 26.5973C1.86261 26.5972 1.93784 26.5837 2.0091 26.5577L2.61945 26.336C2.95688 26.2134 3.13108 25.8405 3.00847 25.503Z" fill="black"/>
<path d="M6.05742 30.7619C5.82106 30.4917 5.41034 30.4644 5.14019 30.7007L4.64229 31.1188C4.49506 31.2423 4.41008 31.4246 4.41016 31.6167C4.41024 31.9757 4.70128 32.2667 5.06024 32.2667C5.21291 32.2665 5.36062 32.2127 5.47754 32.1146L5.97544 31.6966C5.98251 31.6909 5.98941 31.6851 5.99624 31.6791C6.26639 31.4428 6.29378 31.0321 6.05742 30.7619Z" fill="black"/>
<path d="M8.21727 32.9251C7.93744 32.7002 7.52835 32.7447 7.30345 33.0245L6.8855 33.5224C6.78767 33.6393 6.73397 33.7868 6.73389 33.9392C6.73364 34.2982 7.02444 34.5895 7.3834 34.5897C7.57547 34.5897 7.7578 34.5048 7.8813 34.3577L8.29925 33.8598C8.30526 33.8529 8.31103 33.846 8.31672 33.8389C8.54162 33.5591 8.49709 33.15 8.21727 32.9251Z" fill="black"/>
<path d="M13.4971 35.9915C13.1597 35.8689 12.7867 36.0431 12.6641 36.3806L12.4425 36.9909C12.4166 37.0622 12.4032 37.1375 12.4033 37.2134C12.4034 37.5723 12.6945 37.8633 13.0535 37.8632C13.3266 37.863 13.5704 37.6921 13.6638 37.4355L13.8861 36.8245C14.0087 36.4871 13.8345 36.1141 13.4971 35.9915Z" fill="black"/>
<path d="M16.4527 36.7832C16.0991 36.7208 15.762 36.957 15.6997 37.3106L15.5866 37.9509V37.951C15.5245 38.3046 15.7608 38.6415 16.1144 38.7036C16.1517 38.7106 16.1895 38.714 16.2275 38.714C16.5429 38.7137 16.8125 38.4871 16.8671 38.1764L16.9802 37.5362C17.0425 37.1826 16.8063 36.8455 16.4527 36.7832Z" fill="black"/>
<path d="M23.4138 37.9509L23.3007 37.3106C23.2384 36.957 22.9013 36.7208 22.5477 36.7832C22.1941 36.8455 21.9579 37.1826 22.0202 37.5362L22.1333 38.1764C22.1879 38.4871 22.4575 38.7137 22.7729 38.714C22.8109 38.714 22.8487 38.7106 22.886 38.7036H22.8861C23.2397 38.6414 23.476 38.3045 23.4138 37.9509Z" fill="black"/>
<path d="M26.5576 36.9909L26.336 36.3806C26.2134 36.0431 25.8404 35.8689 25.503 35.9915C25.1656 36.1141 24.9914 36.4871 25.114 36.8245L25.3363 37.4355C25.4297 37.6922 25.6735 37.863 25.9466 37.8632C26.0225 37.8632 26.0978 37.85 26.1691 37.824C26.5064 37.7013 26.6804 37.3283 26.5576 36.9909Z" fill="black"/>
<path d="M32.1147 33.5225L31.6967 33.0246C31.691 33.0176 31.6853 33.0107 31.6792 33.0038C31.4429 32.7337 31.0322 32.7063 30.762 32.9427C30.4919 33.179 30.4645 33.5897 30.7009 33.8599L31.1189 34.3578C31.242 34.5054 31.4245 34.5905 31.6168 34.5898C31.7692 34.5897 31.9167 34.536 32.0336 34.4382C32.3088 34.2077 32.3452 33.7977 32.1147 33.5225Z" fill="black"/>
<path d="M34.3576 31.1188L33.8597 30.7008C33.8529 30.6949 33.846 30.6891 33.8389 30.6834C33.5591 30.4585 33.15 30.503 32.9251 30.7828C32.7002 31.0626 32.7447 31.4717 33.0246 31.6966L33.5225 32.1146C33.6394 32.2127 33.7871 32.2665 33.9398 32.2667C34.1319 32.2667 34.3143 32.1817 34.4378 32.0345C34.6685 31.7595 34.6326 31.3495 34.3576 31.1188Z" fill="black"/>
<path d="M37.4354 25.3363L36.8244 25.114C36.4869 24.9914 36.114 25.1656 35.9914 25.503C35.8688 25.8405 36.043 26.2134 36.3804 26.336L36.9908 26.5577C37.062 26.5837 37.1372 26.5972 37.2131 26.5973C37.4867 26.5976 37.7312 26.4264 37.8246 26.169C37.9471 25.8316 37.7728 25.4588 37.4354 25.3363Z" fill="black"/>
<path d="M38.1767 22.1331L37.5364 22.02C37.1828 21.9577 36.8457 22.1939 36.7834 22.5475C36.7211 22.9011 36.9573 23.2382 37.3109 23.3005L37.9511 23.4136C37.9887 23.42 38.0268 23.4233 38.0649 23.4233C38.3805 23.4232 38.6503 23.1963 38.7048 22.8855C38.7667 22.5319 38.5303 22.195 38.1767 22.1331Z" fill="black"/>
<path d="M38.7041 16.1139C38.6418 15.7603 38.3047 15.5241 37.9511 15.5864L37.3108 15.6995C36.9997 15.754 36.7729 16.0242 36.7729 16.3401C36.7731 16.699 37.0642 16.9899 37.4233 16.9897C37.4612 16.9897 37.499 16.9864 37.5364 16.98L38.1766 16.8669C38.5302 16.8046 38.7664 16.4675 38.7041 16.1139Z" fill="black"/>
<path d="M37.8316 12.8145C37.7024 12.4796 37.326 12.313 36.9911 12.4423L36.3807 12.664C36.122 12.757 35.9497 13.003 35.9507 13.278C35.952 13.6369 36.2441 13.9269 36.603 13.9256C36.6787 13.9255 36.7537 13.9121 36.8247 13.886L37.4357 13.6637C37.4437 13.661 37.4515 13.6581 37.4593 13.6551C37.7943 13.5257 37.9609 13.1494 37.8316 12.8145Z" fill="black"/>
<path d="M34.4363 6.98362C34.2114 6.70379 33.8023 6.65927 33.5225 6.88417L33.0246 7.30212C32.8774 7.42562 32.7924 7.60794 32.7925 7.8001C32.7926 8.15906 33.0836 8.45002 33.4426 8.45002C33.5952 8.44986 33.7429 8.39607 33.8599 8.29792L34.3578 7.87997C34.62 7.65052 34.6547 7.25516 34.4363 6.98362Z" fill="black"/>
<path d="M32.0372 4.58119C31.767 4.34483 31.3564 4.37213 31.1199 4.64229L30.702 5.14019C30.6037 5.25727 30.5498 5.40531 30.5498 5.55822C30.5499 5.91718 30.8409 6.20822 31.1999 6.20814C31.3921 6.20798 31.5744 6.12283 31.6978 5.97544L32.1157 5.47754C32.3341 5.206 32.2994 4.81056 32.0372 4.58119Z" fill="black"/>
<path d="M26.1616 1.16009C25.822 1.04382 25.4524 1.22493 25.3362 1.56455L25.1139 2.17555C25.088 2.24689 25.0746 2.32212 25.0747 2.39801C25.0748 2.75697 25.3659 3.04793 25.7249 3.04785C25.9984 3.04785 26.2426 2.87657 26.3359 2.6195L26.5575 2.00915C26.5605 2.00135 26.5634 1.99347 26.5661 1.98551C26.6823 1.64588 26.5012 1.27628 26.1616 1.16009Z" fill="black"/>
<path d="M22.8863 0.296107C22.5327 0.233788 22.1956 0.469982 22.1333 0.823582L22.0202 1.46383V1.46391C21.9581 1.81751 22.1944 2.15446 22.548 2.21653C22.5853 2.22295 22.6231 2.2262 22.6611 2.22628C22.9762 2.22604 23.2458 1.99976 23.3007 1.68938L23.4138 1.04913C23.4761 0.695532 23.2399 0.358425 22.8863 0.296107Z" fill="black"/>
<path d="M11.9371 5.10186L10.6371 2.85026C10.4573 2.54346 10.0643 2.43816 9.7551 2.6139C9.44302 2.79135 9.3339 3.18818 9.51135 3.50026L10.8113 5.75186C10.9275 5.9532 11.1424 6.0771 11.3749 6.07686C11.4888 6.07678 11.6006 6.04671 11.6992 5.98976C12.0101 5.81028 12.1166 5.41272 11.9371 5.10186Z" fill="black"/>
<path d="M5.75131 10.8121L3.49971 9.51209C3.19055 9.33635 2.79755 9.44165 2.61766 9.74845C2.43615 10.0582 2.53998 10.4564 2.84971 10.6379L5.10131 11.9379C5.20011 11.9949 5.31223 12.025 5.42631 12.025C5.65852 12.025 5.8731 11.9011 5.98921 11.7C6.16869 11.3891 6.06217 10.9916 5.75131 10.8121Z" fill="black"/>
<path d="M5.992 27.294C5.81041 26.9844 5.4122 26.8805 5.10248 27.0621L2.85088 28.3621C2.64979 28.4782 2.52588 28.6928 2.52588 28.925C2.52588 29.284 2.81684 29.575 3.17588 29.575C3.29004 29.5753 3.40216 29.5452 3.50088 29.4879L5.75248 28.1879C5.755 28.1865 5.75752 28.185 5.76004 28.1835C6.06976 28.0019 6.1736 27.6037 5.992 27.294Z" fill="black"/>
<path d="M11.6992 33.0044C11.3872 32.8269 10.9903 32.9361 10.8129 33.2481L9.51288 35.4997C9.45593 35.5984 9.42594 35.7102 9.42578 35.8241C9.42538 36.1831 9.71609 36.4744 10.0751 36.4748C10.3076 36.475 10.5225 36.3511 10.6387 36.1498L11.9387 33.8981C11.9401 33.8957 11.9415 33.8932 11.943 33.8907C12.1204 33.5787 12.0112 33.1818 11.6992 33.0044Z" fill="black"/>
<path d="M29.4874 35.4997L28.1874 33.2481C28.0075 32.9414 27.6145 32.8361 27.3055 33.0119C26.9934 33.1892 26.8842 33.586 27.0616 33.8981L28.3616 36.1497C28.4777 36.3511 28.6927 36.475 28.9251 36.4747C29.0389 36.4746 29.1508 36.4446 29.2495 36.3876C29.5603 36.2081 29.6668 35.8106 29.4874 35.4997Z" fill="black"/>
<path d="M36.1492 28.3621L33.8976 27.0621C33.5884 26.8864 33.1955 26.9917 33.0157 27.2984C32.8341 27.6081 32.9379 28.0063 33.2476 28.1879L35.4992 29.4879C35.5979 29.5452 35.71 29.5753 35.8242 29.575C36.0564 29.575 36.2709 29.4511 36.3871 29.25C36.5665 28.9392 36.46 28.5416 36.1492 28.3621Z" fill="black"/>
<path d="M36.3868 9.75583C36.2093 9.44375 35.8125 9.33463 35.5004 9.51208L33.2488 10.8121C33.0477 10.9282 32.9238 11.1428 32.9238 11.375C32.9238 11.7339 33.2148 12.025 33.5738 12.025C33.6879 12.025 33.8 11.9949 33.8988 11.9379L36.1504 10.6379C36.4572 10.458 36.5625 10.065 36.3868 9.75583Z" fill="black"/>
<path d="M29.2522 2.61833C28.9426 2.43674 28.5443 2.54057 28.3627 2.85022L27.0627 5.10182C27.0057 5.20046 26.9757 5.31226 26.9756 5.42617C26.9752 5.78513 27.266 6.07649 27.6249 6.07682C27.8574 6.07706 28.0723 5.95316 28.1885 5.75182L29.4885 3.50022C29.6642 3.19106 29.5589 2.79814 29.2522 2.61833Z" fill="black"/>
<path d="M4.55 18.85H0.65C0.291037 18.85 0 19.141 0 19.5C0 19.8589 0.291037 20.15 0.65 20.15H4.55C4.90896 20.15 5.2 19.8589 5.2 19.5C5.2 19.141 4.90896 18.85 4.55 18.85Z" fill="black"/>
<path d="M19.5001 33.8C19.1411 33.8 18.8501 34.091 18.8501 34.45V38.35C18.8501 38.709 19.1411 39 19.5001 39C19.8591 39 20.1501 38.709 20.1501 38.35V34.45C20.1501 34.091 19.8591 33.8 19.5001 33.8Z" fill="black"/>
<path d="M38.3499 18.85H33.7999C33.4409 18.85 33.1499 19.141 33.1499 19.5C33.1499 19.8589 33.4409 20.15 33.7999 20.15H38.3499C38.7089 20.15 38.9999 19.8589 38.9999 19.5C38.9999 19.141 38.7089 18.85 38.3499 18.85Z" fill="black"/>
<path d="M28.7487 10.2837C28.4949 10.0299 28.0835 10.0299 27.8296 10.2837L20.8194 17.2939C20.4239 17.0676 19.975 16.9511 19.5194 16.9566C19.0904 16.9666 18.6707 17.0832 18.298 17.2959L14.9629 13.9607C14.7091 13.7059 14.2967 13.705 14.0418 13.9588C13.787 14.2126 13.7861 14.625 14.0399 14.8798L17.3484 18.1883C16.5838 19.4064 16.9515 21.0136 18.1695 21.7781C19.3875 22.5427 20.9947 22.175 21.7593 20.9569C22.2906 20.1106 22.2906 19.0347 21.7593 18.1883L28.7487 11.2028C29.0025 10.949 29.0025 10.5375 28.7487 10.2837ZM20.5304 20.4605C20.0413 20.986 19.2186 21.0155 18.6931 20.5264C18.6801 20.5143 18.6674 20.5019 18.6549 20.4893C18.1397 19.9893 18.1273 19.1663 18.6273 18.6511C18.8672 18.404 19.1952 18.262 19.5395 18.2566C19.8851 18.2467 20.2195 18.3793 20.4645 18.6232C20.99 19.1123 21.0195 19.935 20.5304 20.4605Z" fill="black"/>
</g>
<defs>
<clipPath id="clip0_112_0">
<rect width="39" height="39" fill="white"/>
</clipPath>
</defs>
</svg>
