<svg width="209" height="73" viewBox="0 0 209 73" fill="none" xmlns="http://www.w3.org/2000/svg">
<rect x="77.5" y="0.5" width="60" height="60" stroke="#EDEDED"/>
<rect x="63" y="42" width="31" height="31" fill="#F2F2F2"/>
<path d="M11.78 46.18C10.62 47.5533 9.12 48.24 7.28 48.24C5.44 48.24 3.94667 47.5533 2.8 46.18C1.65333 44.8067 1.08 43.08 1.08 41C1.08 38.9333 1.66 37.2133 2.82 35.84C3.98 34.4533 5.48 33.76 7.32 33.76C9.14667 33.76 10.6333 34.4467 11.78 35.82C12.94 37.1933 13.52 38.92 13.52 41C13.52 43.0667 12.94 44.7933 11.78 46.18ZM5.08 44.2C5.65333 45.04 6.4 45.46 7.32 45.46C8.24 45.46 8.97333 45.0467 9.52 44.22C10.08 43.38 10.36 42.3067 10.36 41C10.36 39.72 10.0733 38.66 9.5 37.82C8.92667 36.9667 8.18667 36.54 7.28 36.54C6.37333 36.54 5.64 36.96 5.08 37.8C4.52 38.6267 4.24 39.6933 4.24 41C4.24 42.2933 4.52 43.36 5.08 44.2ZM20.6341 48.24C18.3541 48.24 16.5341 47.4333 15.1741 45.82L17.2941 43.8C18.2941 44.92 19.4207 45.48 20.6741 45.48C21.2607 45.48 21.7341 45.3267 22.0941 45.02C22.4674 44.7 22.6541 44.2733 22.6541 43.74C22.6541 43.1667 22.4141 42.7267 21.9341 42.42C21.4541 42.1133 20.7807 41.96 19.9141 41.96H18.6341L18.1541 40L21.4941 36.64H15.9941V34H25.4541V36.32L21.9141 39.7C24.4207 40.1267 25.6741 41.4467 25.6741 43.66C25.6741 45.0067 25.2141 46.1067 24.2941 46.96C23.3874 47.8133 22.1674 48.24 20.6341 48.24Z" fill="#372821"/>
<path d="M78.94 48V36.84H74.68V34H86.28V36.84H82.02V48H78.94ZM95.6194 46.62C94.5127 47.7 93.1327 48.24 91.4794 48.24C89.826 48.24 88.446 47.7067 87.3394 46.64C86.246 45.56 85.6994 44.2333 85.6994 42.66C85.6994 41.1 86.2527 39.78 87.3594 38.7C88.4794 37.62 89.866 37.08 91.5194 37.08C93.1727 37.08 94.546 37.62 95.6394 38.7C96.746 39.7667 97.2994 41.0867 97.2994 42.66C97.2994 44.22 96.7394 45.54 95.6194 46.62ZM91.5194 45.62C92.3594 45.62 93.0327 45.34 93.5394 44.78C94.046 44.2067 94.2994 43.5 94.2994 42.66C94.2994 41.8467 94.0327 41.1533 93.4994 40.58C92.9794 39.9933 92.306 39.7 91.4794 39.7C90.6394 39.7 89.966 39.9867 89.4594 40.56C88.9527 41.12 88.6994 41.82 88.6994 42.66C88.6994 43.4733 88.9594 44.1733 89.4794 44.76C90.0127 45.3333 90.6927 45.62 91.5194 45.62ZM99.5006 51.2V37.28H102.541V38.82C103.394 37.66 104.507 37.08 105.881 37.08C107.214 37.08 108.361 37.58 109.321 38.58C110.281 39.58 110.761 40.94 110.761 42.66C110.761 44.3667 110.281 45.72 109.321 46.72C108.374 47.7067 107.227 48.2 105.881 48.2C104.547 48.2 103.434 47.6667 102.541 46.6V51.2H99.5006ZM103.241 44.8C103.747 45.3467 104.367 45.62 105.101 45.62C105.834 45.62 106.454 45.3467 106.961 44.8C107.467 44.24 107.721 43.5133 107.721 42.62C107.721 41.7533 107.467 41.0467 106.961 40.5C106.454 39.94 105.834 39.66 105.101 39.66C104.367 39.66 103.747 39.94 103.241 40.5C102.747 41.0467 102.501 41.7667 102.501 42.66C102.501 43.5267 102.747 44.24 103.241 44.8ZM124.053 48.24C122.453 48.24 121.119 47.7 120.053 46.62C118.999 45.54 118.473 44.22 118.473 42.66C118.473 41.1133 119.006 39.8 120.073 38.72C121.139 37.6267 122.479 37.08 124.093 37.08C125.813 37.08 127.233 37.7067 128.353 38.96L126.573 40.76C125.826 40.0533 124.993 39.7 124.073 39.7C123.326 39.7 122.706 39.9867 122.213 40.56C121.719 41.1333 121.473 41.8333 121.473 42.66C121.473 43.5 121.719 44.2067 122.213 44.78C122.719 45.34 123.379 45.62 124.193 45.62C125.033 45.62 125.853 45.24 126.653 44.48L128.433 46.28C127.846 46.92 127.219 47.4067 126.553 47.74C125.886 48.0733 125.053 48.24 124.053 48.24ZM133.459 48.2C132.405 48.2 131.525 47.9067 130.819 47.32C130.125 46.7333 129.779 45.92 129.779 44.88C129.779 43.7467 130.165 42.8933 130.939 42.32C131.725 41.7467 132.779 41.46 134.099 41.46C134.992 41.46 135.865 41.6067 136.719 41.9V41.72C136.719 40.4133 135.952 39.76 134.419 39.76C133.499 39.76 132.512 39.9533 131.459 40.34L130.699 38.02C132.005 37.4467 133.392 37.16 134.859 37.16C136.472 37.16 137.679 37.56 138.479 38.36C139.252 39.1333 139.639 40.2733 139.639 41.78V48H136.699V46.84C135.885 47.7467 134.805 48.2 133.459 48.2ZM134.379 46.1C135.085 46.1 135.659 45.9267 136.099 45.58C136.539 45.22 136.759 44.7667 136.759 44.22V43.68C136.185 43.4133 135.539 43.28 134.819 43.28C134.152 43.28 133.632 43.4133 133.259 43.68C132.899 43.9333 132.719 44.3067 132.719 44.8C132.719 45.2 132.872 45.52 133.179 45.76C133.485 45.9867 133.885 46.1 134.379 46.1ZM145.777 48.18C144.777 48.18 144.004 47.94 143.457 47.46C142.924 46.9667 142.657 46.1333 142.657 44.96V39.88H141.377V37.28H142.657V34.54H145.697V37.28H148.217V39.88H145.697V44.46C145.697 45.1533 146.024 45.5 146.677 45.5C147.21 45.5 147.71 45.3733 148.177 45.12V47.56C147.484 47.9733 146.684 48.18 145.777 48.18ZM155.245 48.24C153.618 48.24 152.278 47.7267 151.225 46.7C150.171 45.66 149.645 44.3133 149.645 42.66C149.645 41.1 150.145 39.78 151.145 38.7C152.145 37.62 153.411 37.08 154.945 37.08C156.638 37.08 157.931 37.64 158.825 38.76C159.718 39.88 160.165 41.26 160.165 42.9C160.165 43.06 160.151 43.3267 160.125 43.7H152.665C152.811 44.38 153.111 44.9 153.565 45.26C154.018 45.62 154.591 45.8 155.285 45.8C156.231 45.8 157.098 45.4333 157.885 44.7L159.625 46.24C158.545 47.5733 157.085 48.24 155.245 48.24ZM152.625 41.8H157.205C157.111 41.1067 156.865 40.5533 156.465 40.14C156.078 39.7267 155.571 39.52 154.945 39.52C154.331 39.52 153.818 39.7267 153.405 40.14C153.005 40.54 152.745 41.0933 152.625 41.8ZM167.23 51.24C165.484 51.24 163.904 50.8667 162.49 50.12L163.53 47.84C164.69 48.4933 165.897 48.82 167.15 48.82C169.19 48.82 170.21 47.8467 170.21 45.9V45.38C169.73 45.9667 169.217 46.4067 168.67 46.7C168.137 46.98 167.484 47.12 166.71 47.12C165.39 47.12 164.264 46.6667 163.33 45.76C162.41 44.8533 161.95 43.6267 161.95 42.08C161.95 40.5467 162.417 39.3333 163.35 38.44C164.284 37.5333 165.404 37.08 166.71 37.08C168.044 37.08 169.197 37.6133 170.17 38.68V37.28H173.21V45.58C173.21 47.4867 172.757 48.8933 171.85 49.8C170.89 50.76 169.35 51.24 167.23 51.24ZM165.73 43.92C166.224 44.3733 166.844 44.6 167.59 44.6C168.337 44.6 168.957 44.3667 169.45 43.9C169.957 43.4333 170.21 42.8267 170.21 42.08C170.21 41.36 169.957 40.7667 169.45 40.3C168.957 39.8333 168.337 39.6 167.59 39.6C166.844 39.6 166.224 39.8333 165.73 40.3C165.237 40.7667 164.99 41.3733 164.99 42.12C164.99 42.8533 165.237 43.4533 165.73 43.92ZM185.326 46.62C184.22 47.7 182.84 48.24 181.186 48.24C179.533 48.24 178.153 47.7067 177.046 46.64C175.953 45.56 175.406 44.2333 175.406 42.66C175.406 41.1 175.96 39.78 177.066 38.7C178.186 37.62 179.573 37.08 181.226 37.08C182.88 37.08 184.253 37.62 185.346 38.7C186.453 39.7667 187.006 41.0867 187.006 42.66C187.006 44.22 186.446 45.54 185.326 46.62ZM181.226 45.62C182.066 45.62 182.74 45.34 183.246 44.78C183.753 44.2067 184.006 43.5 184.006 42.66C184.006 41.8467 183.74 41.1533 183.206 40.58C182.686 39.9933 182.013 39.7 181.186 39.7C180.346 39.7 179.673 39.9867 179.166 40.56C178.66 41.12 178.406 41.82 178.406 42.66C178.406 43.4733 178.666 44.1733 179.186 44.76C179.72 45.3333 180.4 45.62 181.226 45.62ZM189.208 48V37.28H192.248V39.44C192.941 37.8 194.081 37.0133 195.668 37.08V40.26H195.508C194.468 40.26 193.661 40.58 193.088 41.22C192.528 41.8467 192.248 42.7867 192.248 44.04V48H189.208ZM200.127 51.26C199.167 51.26 198.267 51.0133 197.427 50.52L198.447 48.32C198.914 48.6 199.347 48.74 199.747 48.74C200.227 48.74 200.58 48.5067 200.807 48.04L196.607 37.28H199.827L202.267 44.58L204.607 37.28H207.767L203.647 48.26C203.234 49.3667 202.767 50.14 202.247 50.58C201.727 51.0333 201.02 51.26 200.127 51.26Z" fill="#372821"/>
</svg>
