<svg width="168" height="72" viewBox="0 0 168 72" fill="none" xmlns="http://www.w3.org/2000/svg">
<rect x="63" y="41" width="31" height="31" fill="#F2F2F2"/>
<rect x="77" width="61" height="61" fill="#F2F2F2"/>
<path d="M11.78 46.18C10.62 47.5533 9.12 48.24 7.28 48.24C5.44 48.24 3.94667 47.5533 2.8 46.18C1.65333 44.8067 1.08 43.08 1.08 41C1.08 38.9333 1.66 37.2133 2.82 35.84C3.98 34.4533 5.48 33.76 7.32 33.76C9.14667 33.76 10.6333 34.4467 11.78 35.82C12.94 37.1933 13.52 38.92 13.52 41C13.52 43.0667 12.94 44.7933 11.78 46.18ZM5.08 44.2C5.65333 45.04 6.4 45.46 7.32 45.46C8.24 45.46 8.97333 45.0467 9.52 44.22C10.08 43.38 10.36 42.3067 10.36 41C10.36 39.72 10.0733 38.66 9.5 37.82C8.92667 36.9667 8.18667 36.54 7.28 36.54C6.37333 36.54 5.64 36.96 5.08 37.8C4.52 38.6267 4.24 39.6933 4.24 41C4.24 42.2933 4.52 43.36 5.08 44.2ZM18.0717 48V37.02L15.6317 37.62L14.9917 35.1L19.0117 33.9H21.1117V48H18.0717Z" fill="#372821"/>
<path d="M82.24 48.24C80.1867 48.24 78.4733 47.5467 77.1 46.16C75.74 44.76 75.06 43.04 75.06 41C75.06 38.9733 75.7467 37.26 77.12 35.86C78.4933 34.46 80.24 33.76 82.36 33.76C83.5733 33.76 84.5933 33.96 85.42 34.36C86.2467 34.7467 87.0333 35.3067 87.78 36.04L85.94 38.16C85.34 37.6133 84.7733 37.22 84.24 36.98C83.72 36.7267 83.0867 36.6 82.34 36.6C81.1667 36.6 80.1933 37.0267 79.42 37.88C78.66 38.72 78.28 39.76 78.28 41C78.28 42.2267 78.66 43.2667 79.42 44.12C80.1933 44.9733 81.1667 45.4 82.34 45.4C83.0867 45.4 83.7333 45.2667 84.28 45C84.8267 44.7333 85.4067 44.32 86.02 43.76L87.98 45.86C87.22 46.6733 86.3933 47.2733 85.5 47.66C84.62 48.0467 83.5333 48.24 82.24 48.24ZM93.1656 48.2C92.1123 48.2 91.2323 47.9067 90.5256 47.32C89.8323 46.7333 89.4856 45.92 89.4856 44.88C89.4856 43.7467 89.8723 42.8933 90.6456 42.32C91.4323 41.7467 92.4856 41.46 93.8056 41.46C94.699 41.46 95.5723 41.6067 96.4256 41.9V41.72C96.4256 40.4133 95.659 39.76 94.1256 39.76C93.2056 39.76 92.219 39.9533 91.1656 40.34L90.4056 38.02C91.7123 37.4467 93.099 37.16 94.5656 37.16C96.179 37.16 97.3856 37.56 98.1856 38.36C98.959 39.1333 99.3456 40.2733 99.3456 41.78V48H96.4056V46.84C95.5923 47.7467 94.5123 48.2 93.1656 48.2ZM94.0856 46.1C94.7923 46.1 95.3656 45.9267 95.8056 45.58C96.2456 45.22 96.4656 44.7667 96.4656 44.22V43.68C95.8923 43.4133 95.2456 43.28 94.5256 43.28C93.859 43.28 93.339 43.4133 92.9656 43.68C92.6056 43.9333 92.4256 44.3067 92.4256 44.8C92.4256 45.2 92.579 45.52 92.8856 45.76C93.1923 45.9867 93.5923 46.1 94.0856 46.1ZM105.484 48.18C104.484 48.18 103.711 47.94 103.164 47.46C102.631 46.9667 102.364 46.1333 102.364 44.96V39.88H101.084V37.28H102.364V34.54H105.404V37.28H107.924V39.88H105.404V44.46C105.404 45.1533 105.731 45.5 106.384 45.5C106.917 45.5 107.417 45.3733 107.884 45.12V47.56C107.191 47.9733 106.391 48.18 105.484 48.18ZM114.952 48.24C113.325 48.24 111.985 47.7267 110.932 46.7C109.878 45.66 109.352 44.3133 109.352 42.66C109.352 41.1 109.852 39.78 110.852 38.7C111.852 37.62 113.118 37.08 114.652 37.08C116.345 37.08 117.638 37.64 118.532 38.76C119.425 39.88 119.872 41.26 119.872 42.9C119.872 43.06 119.858 43.3267 119.832 43.7H112.372C112.518 44.38 112.818 44.9 113.272 45.26C113.725 45.62 114.298 45.8 114.992 45.8C115.938 45.8 116.805 45.4333 117.592 44.7L119.332 46.24C118.252 47.5733 116.792 48.24 114.952 48.24ZM112.332 41.8H116.912C116.818 41.1067 116.572 40.5533 116.172 40.14C115.785 39.7267 115.278 39.52 114.652 39.52C114.038 39.52 113.525 39.7267 113.112 40.14C112.712 40.54 112.452 41.0933 112.332 41.8ZM126.937 51.24C125.191 51.24 123.611 50.8667 122.197 50.12L123.237 47.84C124.397 48.4933 125.604 48.82 126.857 48.82C128.897 48.82 129.917 47.8467 129.917 45.9V45.38C129.437 45.9667 128.924 46.4067 128.377 46.7C127.844 46.98 127.191 47.12 126.417 47.12C125.097 47.12 123.971 46.6667 123.037 45.76C122.117 44.8533 121.657 43.6267 121.657 42.08C121.657 40.5467 122.124 39.3333 123.057 38.44C123.991 37.5333 125.111 37.08 126.417 37.08C127.751 37.08 128.904 37.6133 129.877 38.68V37.28H132.917V45.58C132.917 47.4867 132.464 48.8933 131.557 49.8C130.597 50.76 129.057 51.24 126.937 51.24ZM125.437 43.92C125.931 44.3733 126.551 44.6 127.297 44.6C128.044 44.6 128.664 44.3667 129.157 43.9C129.664 43.4333 129.917 42.8267 129.917 42.08C129.917 41.36 129.664 40.7667 129.157 40.3C128.664 39.8333 128.044 39.6 127.297 39.6C126.551 39.6 125.931 39.8333 125.437 40.3C124.944 40.7667 124.697 41.3733 124.697 42.12C124.697 42.8533 124.944 43.4533 125.437 43.92ZM145.033 46.62C143.927 47.7 142.547 48.24 140.893 48.24C139.24 48.24 137.86 47.7067 136.753 46.64C135.66 45.56 135.113 44.2333 135.113 42.66C135.113 41.1 135.667 39.78 136.773 38.7C137.893 37.62 139.28 37.08 140.933 37.08C142.587 37.08 143.96 37.62 145.053 38.7C146.16 39.7667 146.713 41.0867 146.713 42.66C146.713 44.22 146.153 45.54 145.033 46.62ZM140.933 45.62C141.773 45.62 142.447 45.34 142.953 44.78C143.46 44.2067 143.713 43.5 143.713 42.66C143.713 41.8467 143.447 41.1533 142.913 40.58C142.393 39.9933 141.72 39.7 140.893 39.7C140.053 39.7 139.38 39.9867 138.873 40.56C138.367 41.12 138.113 41.82 138.113 42.66C138.113 43.4733 138.373 44.1733 138.893 44.76C139.427 45.3333 140.107 45.62 140.933 45.62ZM148.915 48V37.28H151.955V39.44C152.648 37.8 153.788 37.0133 155.375 37.08V40.26H155.215C154.175 40.26 153.368 40.58 152.795 41.22C152.235 41.8467 151.955 42.7867 151.955 44.04V48H148.915ZM159.834 51.26C158.874 51.26 157.974 51.0133 157.134 50.52L158.154 48.32C158.621 48.6 159.054 48.74 159.454 48.74C159.934 48.74 160.287 48.5067 160.514 48.04L156.314 37.28H159.534L161.974 44.58L164.314 37.28H167.474L163.354 48.26C162.941 49.3667 162.474 50.14 161.954 50.58C161.434 51.0333 160.727 51.26 159.834 51.26Z" fill="#372821"/>
</svg>
